{"glyphs":{"0":{"ha":754,"x_min":42,"x_max":713,"o":"m 340 910 q 308 896 324 904 q 256 846 278 878 q 222 772 235 814 q 210 681 210 729 l 210 328 q 222 237 210 279 q 256 163 235 194 q 308 113 278 131 q 340 99 324 104 l 340 -19 q 242 7 288 -14 q 136 83 181 35 q 67 194 92 131 q 42 332 42 258 l 42 676 q 67 813 42 749 q 136 926 92 878 q 242 1001 181 974 q 340 1028 288 1022 l 340 910 m 383 94 q 444 113 417 96 q 497 163 475 131 q 531 237 519 194 q 543 328 543 279 l 543 681 q 531 772 543 729 q 497 846 519 814 q 444 896 475 878 q 383 914 417 913 l 383 1029 q 513 1001 453 1028 q 618 926 574 974 q 688 813 663 878 q 713 676 713 749 l 713 332 q 688 194 713 258 q 618 83 663 131 q 513 7 574 35 q 383 -21 453 -19 l 383 94 z "},"1":{"ha":546,"x_min":42,"x_max":504,"o":"m 42 701 q 208 800 149 747 q 299 901 267 853 l 299 689 q 230 649 265 664 q 164 625 194 633 q 94 611 128 615 q 69 642 79 626 q 53 672 60 658 q 42 701 46 688 m 504 43 q 428 12 469 24 q 336 0 388 0 l 336 968 q 413 999 372 988 q 504 1010 454 1010 l 504 43 z "},"2":{"ha":710,"x_min":43,"x_max":674,"o":"m 249 113 l 642 113 l 642 0 l 249 0 l 249 113 m 211 0 l 43 0 l 43 258 q 60 378 43 325 q 106 472 78 431 q 172 543 135 513 q 251 596 210 574 q 303 624 293 618 q 315 630 313 629 q 323 634 317 631 q 363 656 329 638 q 461 726 431 692 q 489 808 492 760 q 478 853 488 831 q 453 894 469 876 q 410 921 436 911 q 351 929 385 931 q 279 913 319 926 q 196 853 239 900 l 194 854 q 158 905 172 879 q 132 957 143 931 q 228 1019 175 996 q 344 1044 282 1042 q 489 1026 429 1049 q 587 966 549 1003 q 643 886 625 929 q 665 807 661 843 q 644 665 674 724 q 544 564 614 606 q 492 534 514 546 q 445 511 469 522 q 392 485 421 500 q 321 447 364 471 q 238 363 265 415 q 211 263 210 310 l 211 113 l 211 0 z "},"3":{"ha":656,"x_min":42,"x_max":614,"o":"m 486 603 q 579 484 544 554 q 614 332 614 414 q 586 194 614 258 q 510 83 558 131 q 398 7 463 35 q 260 -21 333 -21 q 142 -1 197 -21 q 43 54 88 18 q 66 108 53 82 q 100 161 79 135 l 101 163 q 187 106 146 118 q 260 94 228 93 q 332 115 299 96 q 390 165 365 133 q 430 240 415 197 q 444 332 444 282 q 419 451 444 399 q 353 536 393 504 q 427 560 393 543 q 486 603 461 578 m 464 619 q 390 583 432 596 q 297 569 347 569 l 260 569 l 149 569 l 149 653 q 194 676 168 668 q 260 685 221 685 q 316 695 290 685 q 360 723 342 706 q 389 763 379 740 q 397 808 399 785 q 388 853 396 831 q 362 894 379 876 q 319 921 344 911 q 260 929 294 931 q 188 913 228 926 q 104 853 149 900 l 104 854 q 67 905 82 879 q 42 957 53 931 q 138 1019 85 996 q 254 1044 192 1042 q 397 1026 339 1049 q 492 967 456 1003 q 544 887 528 931 q 560 807 560 843 q 535 702 560 751 q 464 619 510 653 z "},"4":{"ha":732,"x_min":42,"x_max":690,"o":"m 521 967 q 598 998 557 986 q 690 1010 639 1010 l 690 40 q 628 14 661 25 q 554 0 594 3 l 521 0 l 521 967 m 483 460 l 483 344 l 394 344 q 257 372 321 344 q 145 448 193 400 q 69 560 97 496 q 42 697 42 624 l 42 967 q 118 998 78 986 q 210 1010 158 1010 l 210 693 q 224 602 210 644 q 264 528 239 560 q 323 478 289 496 q 394 460 357 460 l 483 460 z "},"5":{"ha":725,"x_min":42,"x_max":683,"o":"m 596 897 l 210 897 l 210 543 l 42 543 l 42 1010 l 596 1010 l 596 897 m 683 332 q 647 171 683 238 q 554 62 611 104 q 428 -1 497 19 q 294 -21 360 -21 q 185 -10 232 -21 q 107 17 139 1 q 42 54 69 32 q 97 161 60 111 l 99 163 q 202 104 153 119 q 297 92 251 89 q 358 105 321 93 q 431 144 396 117 q 490 218 465 172 q 515 332 515 264 q 501 424 515 381 q 461 499 486 467 q 402 551 436 532 q 331 569 368 569 q 247 543 286 569 l 247 675 q 288 682 267 679 q 331 685 308 685 q 467 657 403 685 q 580 581 532 629 q 656 469 628 533 q 683 332 683 404 z "},"6":{"ha":754,"x_min":42,"x_max":713,"o":"m 542 299 q 543 332 543 315 q 542 365 543 349 q 532 424 539 396 q 498 499 519 467 q 446 551 476 532 q 376 569 415 569 q 303 544 332 569 q 249 475 274 518 l 249 653 q 310 676 282 668 q 376 685 338 685 q 512 657 450 685 q 618 581 574 629 q 688 469 663 533 q 713 332 713 404 q 688 194 713 258 q 618 83 663 131 q 542 22 585 47 l 542 299 m 504 3 q 376 -21 444 -21 q 242 7 303 -21 q 136 83 181 35 q 67 194 92 131 q 42 332 42 258 l 42 689 q 69 826 42 761 q 145 938 97 890 q 257 1014 193 986 q 394 1042 321 1042 q 512 1022 457 1042 q 613 967 567 1001 q 556 860 593 910 l 554 858 q 467 915 508 903 q 394 925 426 926 q 323 907 357 925 q 264 857 289 889 q 224 783 239 825 q 210 692 210 740 l 210 328 q 222 237 210 279 q 256 163 235 194 q 308 113 278 131 q 376 94 339 94 q 446 113 415 94 q 499 164 476 132 q 504 174 501 168 l 504 3 z "},"7":{"ha":657,"x_min":42,"x_max":615,"o":"m 615 1011 l 615 899 l 42 899 l 42 1011 l 615 1011 m 615 861 l 299 43 q 214 12 260 24 q 111 0 168 0 l 449 861 l 615 861 z "},"8":{"ha":789,"x_min":42,"x_max":747,"o":"m 157 649 q 119 703 135 672 q 94 807 94 751 q 108 885 94 843 q 156 962 122 926 q 245 1021 189 997 q 388 1044 301 1044 q 529 1021 471 1044 q 624 962 588 997 q 676 885 660 926 q 693 807 693 843 q 668 702 693 751 q 597 619 643 653 q 524 583 565 596 q 431 569 482 569 l 386 569 l 386 568 q 317 546 350 565 q 261 495 285 526 q 224 422 238 464 q 210 332 210 379 q 224 239 210 282 q 264 164 239 196 q 322 113 289 132 q 394 94 356 94 q 467 113 433 94 q 526 164 501 132 q 565 239 551 196 q 579 332 579 282 q 553 451 579 399 q 486 536 526 504 q 560 560 526 543 q 619 603 594 578 q 713 484 678 554 q 747 332 747 414 q 719 194 747 258 q 644 83 692 131 q 531 7 596 35 q 394 -21 467 -21 q 257 7 321 -21 q 145 83 193 35 q 69 194 97 131 q 42 332 42 258 q 82 497 42 422 q 189 618 122 569 l 344 693 q 394 685 368 685 q 451 695 425 685 q 495 723 476 706 q 524 763 514 740 q 532 808 533 785 q 522 853 531 831 q 497 892 514 875 q 455 919 481 908 q 394 929 429 929 q 292 892 325 929 q 257 808 260 854 q 265 763 256 785 q 294 724 275 740 q 310 710 301 715 l 157 649 z "},"9":{"ha":754,"x_min":42,"x_max":713,"o":"m 217 760 q 210 688 210 726 q 222 596 210 639 q 255 521 233 553 q 308 470 276 489 q 376 451 339 451 q 451 477 421 451 q 506 546 481 503 l 506 367 q 444 343 472 351 q 376 335 417 335 q 242 363 303 335 q 136 438 181 390 q 67 550 92 486 q 42 688 42 614 q 67 826 42 761 q 136 939 92 890 q 217 1001 171 976 l 217 760 m 263 1022 q 376 1042 315 1042 q 512 1014 450 1042 q 618 938 574 986 q 688 826 663 890 q 713 688 713 761 l 713 332 q 685 194 713 258 q 609 83 657 131 q 497 7 561 35 q 358 -21 432 -21 q 241 -1 296 -21 q 142 54 186 18 q 165 108 151 82 q 199 161 178 135 l 200 161 q 285 105 244 117 q 358 94 326 93 q 429 113 396 94 q 488 163 463 131 q 528 237 513 194 q 543 328 543 279 l 543 692 q 531 783 543 740 q 497 857 519 825 q 444 907 475 889 q 376 925 414 925 q 308 907 339 925 q 263 867 282 890 l 263 1022 z "}," ":{"ha":333,"x_min":0,"x_max":0,"o":""}," ":{"ha":333,"x_min":0,"x_max":0,"o":""},"D":{"ha":828,"x_min":42,"x_max":800,"o":"m 365 1014 q 535 977 456 1014 q 673 875 614 940 q 766 721 732 810 q 800 528 800 632 l 800 488 q 766 294 800 383 q 673 139 732 204 q 535 37 614 74 q 365 0 456 0 l 42 0 l 42 975 q 119 1003 76 993 q 210 1014 161 1014 l 210 114 l 360 114 q 465 141 417 114 q 549 217 514 168 q 605 335 585 267 q 625 488 625 404 l 625 528 q 605 680 625 611 q 549 798 585 749 q 465 874 514 847 q 360 901 417 901 l 249 901 l 249 1014 l 365 1014 l 365 1014 z "},"E":{"ha":736,"x_min":35,"x_max":694,"o":"m 519 604 l 519 492 l 242 492 l 242 604 l 519 604 m 694 117 l 694 0 l 388 0 q 250 28 314 0 q 138 103 186 56 q 63 216 90 151 q 35 354 35 281 l 35 661 q 63 799 35 735 q 138 910 90 863 q 250 986 186 958 q 388 1014 314 1014 l 694 1014 l 694 899 l 388 899 q 317 881 350 899 q 258 831 283 863 q 219 756 233 799 q 204 664 204 713 l 204 350 q 219 259 204 301 q 258 185 233 217 q 317 135 283 153 q 388 117 350 117 l 694 117 z "},"F":{"ha":615,"x_min":42,"x_max":615,"o":"m 475 604 l 475 492 l 249 492 l 249 604 l 475 604 m 615 1014 l 615 899 l 394 899 q 323 880 357 899 q 264 829 289 861 q 224 755 239 797 q 210 664 210 713 l 210 42 q 133 11 174 22 q 42 0 93 0 l 42 661 q 69 798 42 733 q 145 910 97 863 q 257 986 193 958 q 394 1014 321 1014 l 615 1014 z "},"G":{"ha":843,"x_min":26,"x_max":850,"o":"m 850 557 l 850 336 q 822 198 850 263 q 742 85 793 133 q 620 10 692 38 q 461 -18 549 -18 q 292 24 371 -18 q 153 137 213 65 q 60 304 94 208 q 26 508 26 400 q 60 713 26 617 q 153 880 94 808 q 292 992 213 951 q 461 1033 371 1033 q 578 1014 524 1033 q 678 958 633 994 q 656 904 669 931 q 621 851 642 878 l 621 850 q 534 907 575 894 q 461 918 493 919 q 356 885 404 917 q 274 799 308 853 q 220 670 239 744 q 201 508 201 596 q 220 347 201 421 q 274 217 239 272 q 356 130 308 161 q 461 99 404 99 q 553 117 513 99 q 623 168 594 136 q 666 243 651 200 q 681 336 681 286 l 681 442 l 497 442 l 497 557 l 850 557 z "},"H":{"ha":817,"x_min":56,"x_max":761,"o":"m 225 635 q 312 674 265 660 q 408 688 358 688 q 485 678 449 688 q 556 654 522 669 l 556 476 q 491 545 529 519 q 408 571 453 571 q 338 553 371 571 q 279 503 304 535 q 240 428 254 471 q 225 338 225 386 l 224 44 q 148 14 189 25 q 56 3 107 3 l 56 974 q 118 1000 85 989 q 192 1014 151 1011 l 224 1014 l 225 635 m 761 44 q 685 14 725 25 q 593 3 644 3 l 593 974 q 656 1000 622 989 q 728 1014 689 1011 l 761 1014 l 761 44 z "},"I":{"ha":279,"x_min":56,"x_max":224,"o":"m 56 972 q 132 1003 92 992 q 224 1014 172 1014 l 224 43 q 161 17 194 28 q 89 3 128 6 l 56 3 l 56 972 l 56 972 z "},"J":{"ha":639,"x_min":14,"x_max":583,"o":"m 583 335 q 556 197 583 261 q 480 85 528 133 q 367 10 432 38 q 231 -18 303 -18 q 113 1 168 -18 q 14 57 58 21 q 36 111 22 85 q 71 164 50 138 l 71 165 q 158 108 117 121 q 231 97 199 96 q 301 115 268 97 q 360 165 335 133 q 400 240 385 197 q 415 331 415 282 l 415 969 q 492 1001 451 989 q 583 1013 532 1013 l 583 335 z "},"K":{"ha":771,"x_min":42,"x_max":747,"o":"m 210 40 q 133 10 174 21 q 42 -1 92 -1 l 42 967 q 118 998 78 986 q 210 1010 158 1010 l 210 39 l 210 40 m 582 524 q 702 399 657 476 q 747 225 747 321 l 747 40 q 670 10 711 21 q 579 -1 629 -1 l 579 256 q 565 343 579 304 q 525 408 550 382 q 466 449 500 435 q 394 463 432 463 q 312 437 350 463 q 247 368 274 411 l 247 549 q 394 581 315 581 q 441 600 425 581 q 471 647 457 619 q 499 701 481 665 q 538 772 518 736 q 585 860 560 814 q 668 850 631 860 q 739 824 706 840 l 582 524 z "},"L":{"ha":626,"x_min":42,"x_max":613,"o":"m 42 1014 q 133 1003 93 1014 q 210 972 174 992 l 210 331 q 224 240 210 282 q 264 165 239 197 q 323 115 289 133 q 394 97 357 97 q 467 108 426 96 q 554 165 508 121 l 556 164 q 589 111 575 138 q 613 57 603 85 q 512 1 567 21 q 394 -18 457 -18 q 257 10 321 -18 q 145 85 193 38 q 69 197 97 133 q 42 335 42 261 l 42 1014 z "},"N":{"ha":754,"x_min":42,"x_max":713,"o":"m 378 1029 q 512 1001 450 1029 q 618 926 574 974 q 688 813 663 878 q 713 676 713 749 l 713 43 q 637 12 678 24 q 544 0 596 0 l 544 676 q 533 768 544 725 q 499 844 521 811 q 447 895 478 876 q 378 914 415 914 q 309 895 340 914 q 256 844 278 876 q 223 768 235 811 q 211 676 211 725 l 211 43 q 134 12 175 24 q 42 0 93 0 l 42 676 q 67 813 42 749 q 137 926 92 878 q 243 1001 182 974 q 378 1029 304 1029 z "},"O":{"ha":868,"x_min":28,"x_max":840,"o":"m 400 908 q 332 881 363 901 q 258 794 288 849 q 212 666 228 740 q 196 504 196 592 q 212 342 196 417 q 258 213 228 268 q 332 128 288 158 q 400 99 363 106 l 400 -18 q 269 22 329 -11 q 141 133 194 63 q 58 300 88 204 q 28 504 28 396 q 58 708 28 613 q 141 876 88 804 q 269 989 194 947 q 400 1028 329 1021 l 400 908 m 440 96 q 535 128 493 97 q 609 213 579 158 q 655 342 639 268 q 671 504 671 417 q 655 666 671 592 q 609 794 639 740 q 535 881 579 849 q 440 911 493 910 l 440 1029 q 599 989 526 1028 q 727 876 674 947 q 810 708 781 804 q 840 504 840 613 q 810 300 840 396 q 727 133 781 204 q 599 22 674 63 q 440 -19 526 -18 l 440 96 z "},"P":{"ha":775,"x_min":42,"x_max":747,"o":"m 571 982 q 644 926 611 958 q 719 813 692 878 q 747 676 747 749 q 719 539 747 603 q 644 427 692 475 q 532 351 596 379 q 394 324 468 324 q 249 356 317 324 l 249 533 q 312 465 274 490 q 394 439 350 439 q 467 458 433 439 q 525 508 500 476 q 565 584 550 540 q 579 676 579 628 q 571 747 579 713 l 571 982 m 539 824 q 525 844 532 835 q 467 895 500 876 q 394 914 433 914 q 324 896 357 914 q 265 846 290 878 q 226 771 240 814 q 211 679 211 728 l 211 43 q 134 12 175 24 q 42 0 93 0 l 42 676 q 69 813 42 749 q 145 926 97 878 q 257 1001 193 974 q 394 1029 321 1029 q 532 1001 468 1029 q 539 999 536 1000 l 539 824 z "},"Q":{"ha":906,"x_min":28,"x_max":878,"o":"m 397 908 q 332 881 361 901 q 258 794 288 849 q 212 666 228 740 q 196 504 196 592 q 212 342 196 417 q 258 213 228 268 q 332 127 288 158 q 433 96 376 96 q 518 117 481 96 q 585 175 556 138 l 653 57 q 551 1 607 21 q 433 -19 496 -19 q 269 22 343 -19 q 141 133 194 63 q 58 300 88 204 q 28 504 28 396 q 58 708 28 613 q 141 876 88 804 q 269 989 194 947 q 397 1028 328 1021 l 397 908 m 435 1029 q 599 989 524 1029 q 727 876 674 947 q 810 708 781 804 q 840 504 840 613 q 824 348 840 422 q 775 211 807 274 l 878 33 q 808 9 846 18 q 726 0 771 0 l 493 400 q 570 428 533 419 q 643 439 607 438 l 665 401 q 670 451 668 425 q 672 504 672 476 q 656 666 672 592 q 610 794 640 740 q 535 881 579 849 q 435 911 490 911 l 435 1029 z "},"R":{"ha":790,"x_min":42,"x_max":783,"o":"m 542 836 q 525 858 533 849 q 467 899 500 885 q 396 914 433 914 q 324 895 358 914 q 265 844 290 876 q 226 770 240 813 q 211 679 211 728 l 211 43 q 134 12 175 24 q 42 0 93 0 l 42 676 q 69 813 42 749 q 145 926 97 878 q 258 1001 193 974 q 396 1029 322 1029 q 533 1006 468 1029 q 542 1003 538 1004 l 542 836 m 576 986 q 646 940 614 967 q 721 837 693 897 q 749 704 749 776 q 704 547 749 610 q 585 438 660 483 l 783 35 q 713 10 751 19 q 629 0 675 0 q 560 138 592 74 l 472 313 q 442 360 457 340 q 396 379 426 379 q 249 411 317 379 l 249 592 q 312 523 274 549 q 396 497 350 497 q 467 511 433 497 q 525 551 500 525 q 565 617 550 578 q 579 704 579 656 q 576 744 579 725 l 576 986 z "},"S":{"ha":710,"x_min":24,"x_max":683,"o":"m 472 579 q 553 529 514 557 q 621 466 592 501 q 667 385 650 431 q 681 281 683 339 q 645 151 676 210 q 562 53 614 93 q 441 -6 510 14 q 293 -18 372 -25 q 209 1 249 -14 q 135 38 169 17 q 74 84 101 60 q 28 132 46 108 q 60 194 40 163 q 99 247 79 225 q 154 175 122 207 q 222 124 182 147 q 313 99 261 101 q 437 131 392 94 q 492 220 482 168 q 475 329 501 272 q 382 422 449 386 q 312 460 339 446 q 268 485 285 475 q 242 500 251 494 q 222 511 232 506 q 198 525 211 517 q 161 547 185 533 q 40 789 24 628 q 63 869 44 825 q 119 949 81 913 q 216 1009 157 986 q 361 1028 275 1032 q 477 1001 424 1025 q 574 940 531 978 q 548 887 563 913 q 511 838 533 861 l 510 836 q 427 898 467 883 q 354 913 388 913 q 254 875 289 913 q 217 792 219 838 q 224 749 215 768 q 249 713 232 729 q 291 679 265 696 q 350 644 317 663 q 383 626 372 632 q 397 619 393 621 q 403 616 401 617 q 411 612 406 615 q 431 601 417 608 q 472 579 444 594 z "},"T":{"ha":706,"x_min":0,"x_max":706,"o":"m 433 1011 l 433 39 q 359 10 399 21 q 271 0 319 0 l 271 899 l 0 899 l 0 1011 l 433 1011 m 706 899 l 471 899 l 471 1011 l 706 1011 l 706 899 z "},"U":{"ha":754,"x_min":42,"x_max":713,"o":"m 376 -18 q 242 10 303 -18 q 136 85 181 38 q 67 198 92 133 q 42 336 42 263 l 42 969 q 118 1000 78 989 q 210 1011 158 1011 l 210 336 q 222 243 210 286 q 255 168 233 200 q 308 117 276 136 q 376 99 339 99 q 446 117 415 99 q 498 168 476 136 q 531 243 519 200 q 543 336 543 286 l 543 969 q 620 1000 579 989 q 713 1011 661 1011 l 713 336 q 688 198 713 263 q 618 85 663 133 q 512 10 574 38 q 376 -18 450 -18 z "},"V":{"ha":871,"x_min":28,"x_max":843,"o":"m 690 1011 q 773 1002 735 1011 q 843 978 811 993 l 481 -19 l 390 -19 l 28 978 q 98 1002 60 993 q 181 1011 136 1011 l 436 253 l 690 1011 z "},"W":{"ha":1257,"x_min":42,"x_max":1215,"o":"m 879 -18 q 744 10 806 -18 q 639 85 683 38 q 569 198 594 133 q 544 336 544 263 l 544 969 q 620 1000 579 989 q 713 1011 661 1011 l 713 336 q 724 243 713 286 q 758 168 736 200 q 810 117 779 136 q 879 99 842 99 q 948 117 917 99 q 1001 168 979 136 q 1034 243 1022 200 q 1046 336 1046 286 l 1046 969 q 1123 1000 1082 989 q 1215 1011 1164 1011 l 1215 336 q 1190 198 1215 263 q 1120 85 1165 133 q 1013 10 1075 38 q 879 -18 951 -18 m 376 -18 q 242 10 303 -18 q 136 85 181 38 q 67 198 92 133 q 42 336 42 263 l 42 969 q 119 1000 78 989 q 210 1011 160 1011 l 210 336 q 222 243 210 286 q 255 168 233 200 q 308 117 276 136 q 376 99 339 99 q 467 132 429 99 q 524 218 504 165 q 610 78 550 136 q 506 8 565 33 q 376 -18 447 -18 z "},"X":{"ha":792,"x_min":43,"x_max":749,"o":"m 610 538 q 711 417 674 489 q 749 258 749 344 l 749 43 q 672 12 713 24 q 579 0 631 0 l 579 258 q 550 388 579 331 q 474 472 521 444 q 610 538 549 490 m 749 919 q 749 845 749 888 q 735 753 749 803 q 690 653 722 704 q 590 554 657 601 q 498 510 550 524 q 396 496 446 496 q 324 477 357 496 q 265 426 290 458 q 226 350 240 393 q 211 258 211 307 l 211 43 q 134 12 175 24 q 43 0 93 0 l 43 258 q 86 428 43 351 q 201 553 129 506 q 102 653 135 601 q 56 753 69 704 q 43 844 43 801 q 43 918 43 888 l 43 969 q 119 1000 78 989 q 211 1011 160 1011 l 211 825 q 226 737 211 776 q 265 669 240 697 q 324 626 290 642 q 396 611 357 611 q 467 626 433 611 q 525 669 500 642 q 565 737 550 697 q 579 825 579 776 l 579 969 q 656 1000 615 989 q 749 1011 697 1011 l 749 919 z "},"Y":{"ha":726,"x_min":28,"x_max":699,"o":"m 282 468 q 364 458 319 458 q 405 460 385 458 q 444 468 425 463 l 444 39 q 370 10 410 21 q 282 0 331 0 l 282 468 m 364 496 q 228 524 290 496 q 122 599 167 551 q 53 711 78 647 q 28 849 28 775 l 28 969 q 105 1000 64 989 q 197 1011 146 1011 l 197 849 q 209 756 197 800 q 242 681 221 713 q 294 630 264 649 q 364 611 325 611 q 433 630 401 611 q 485 681 464 649 q 519 756 507 713 q 531 849 531 800 l 531 969 q 608 1000 567 989 q 699 1011 649 1011 l 699 849 q 674 711 699 775 q 604 599 649 647 q 498 524 560 551 q 364 496 436 496 z "},"Z":{"ha":726,"x_min":28,"x_max":699,"o":"m 28 1011 l 699 1011 l 699 899 l 28 899 l 28 1011 m 225 113 l 699 113 l 699 0 l 28 0 l 28 113 l 501 861 l 699 861 l 225 113 z "},"a":{"ha":775,"x_min":28,"x_max":733,"o":"m 363 567 q 310 550 335 564 q 250 499 275 531 q 210 424 225 467 q 196 331 196 381 q 210 239 196 282 q 250 164 225 196 q 309 113 275 132 q 381 94 343 94 q 463 119 425 94 q 528 189 501 144 l 528 10 q 458 -14 494 -6 q 381 -22 421 -22 q 243 6 307 -22 q 131 81 179 33 q 56 193 83 129 q 28 331 28 257 q 56 468 28 404 q 131 580 83 532 q 243 656 179 628 q 363 683 299 681 l 363 567 m 400 683 q 518 656 463 679 q 630 580 582 628 q 706 468 678 532 q 733 331 733 404 l 733 0 q 642 11 683 0 q 565 42 601 22 l 565 331 q 562 378 565 356 q 551 424 558 401 q 485 528 529 488 q 400 567 447 561 l 400 683 z "},"b":{"ha":789,"x_min":42,"x_max":747,"o":"m 539 8 q 532 6 536 7 q 394 -22 467 -22 q 257 6 321 -22 q 145 81 193 33 q 69 193 97 129 q 42 331 42 257 l 42 967 q 119 997 78 986 q 210 1008 160 1008 l 210 328 q 224 237 210 279 q 264 163 239 194 q 323 112 289 131 q 394 93 357 93 q 466 112 432 93 q 525 163 500 131 q 539 182 532 172 l 539 8 m 576 289 q 579 331 579 310 q 565 424 579 381 q 525 499 550 467 q 466 549 500 531 q 394 568 432 568 q 312 542 350 568 q 249 474 274 517 l 249 651 q 394 683 317 683 q 531 656 467 683 q 644 580 596 628 q 719 468 692 532 q 747 331 747 404 q 719 193 747 257 q 644 82 692 129 q 576 29 614 51 l 576 289 z "},"c":{"ha":632,"x_min":35,"x_max":604,"o":"m 388 93 q 460 104 419 92 q 546 161 501 117 l 547 160 q 581 107 568 133 q 604 53 594 81 q 505 -3 560 17 q 388 -22 450 -22 q 250 6 314 -22 q 138 81 186 33 q 63 193 90 129 q 35 331 35 257 q 63 468 35 404 q 138 580 90 532 q 250 656 186 628 q 388 683 314 683 q 505 664 450 683 q 604 608 560 644 q 581 554 594 581 q 547 501 568 528 l 546 500 q 460 557 501 544 q 388 568 419 569 q 315 548 349 567 q 257 497 282 529 q 217 423 232 465 q 203 331 203 381 q 217 239 203 282 q 257 164 232 196 q 315 113 282 132 q 388 93 349 94 z "},"d":{"ha":790,"x_min":42,"x_max":749,"o":"m 215 26 q 146 82 176 50 q 69 193 97 129 q 42 331 42 257 q 69 468 42 404 q 145 580 97 532 q 257 656 193 628 q 394 683 321 683 q 542 651 474 683 l 542 474 q 478 542 517 517 q 394 568 440 568 q 324 549 357 568 q 265 499 290 531 q 226 424 240 467 q 211 331 211 381 q 215 281 211 304 l 215 26 m 253 179 q 265 163 258 171 q 324 112 290 131 q 394 93 357 93 q 465 112 432 93 q 524 163 499 131 q 564 237 549 194 q 579 328 579 279 l 579 967 q 656 997 615 986 q 749 1008 697 1008 l 749 331 q 721 193 749 257 q 645 81 693 129 q 533 6 597 33 q 394 -22 468 -22 q 257 6 321 -22 q 253 7 254 7 l 253 179 z "},"e":{"ha":707,"x_min":35,"x_max":682,"o":"m 524 654 q 597 606 565 635 q 659 522 636 569 q 679 424 682 475 q 639 320 676 363 q 542 255 601 278 q 408 227 483 232 q 253 238 332 222 q 233 340 233 288 l 233 357 q 397 344 338 336 q 485 374 456 353 q 521 417 514 394 q 528 449 528 440 q 525 475 528 456 q 524 478 524 476 l 524 654 m 490 529 q 464 547 479 539 q 383 561 435 561 q 310 544 343 561 q 254 495 278 526 q 217 420 231 464 q 204 325 204 376 q 219 235 204 276 q 258 162 233 193 q 317 113 283 131 q 389 94 350 94 q 451 101 422 92 q 503 124 481 110 q 550 160 528 139 l 632 76 q 522 4 585 31 q 389 -22 460 -22 q 251 6 315 -22 q 138 81 186 33 q 63 193 90 129 q 35 331 35 257 q 63 469 35 404 q 138 581 90 533 q 251 657 186 629 q 389 685 315 685 q 490 668 442 685 l 490 529 z "},"f":{"ha":613,"x_min":42,"x_max":613,"o":"m 249 650 l 426 650 l 426 521 l 249 521 l 249 650 m 394 1010 q 513 990 457 1010 q 613 935 568 971 q 556 828 593 878 l 554 826 q 465 882 508 869 q 394 894 421 894 q 323 876 357 894 q 264 824 289 857 q 224 749 239 792 q 210 657 210 706 l 210 43 q 134 12 175 24 q 42 0 93 0 l 42 657 q 69 794 42 729 q 145 906 97 858 q 257 982 193 954 q 394 1010 321 1010 z "},"g":{"ha":754,"x_min":42,"x_max":713,"o":"m 210 328 q 222 235 210 279 q 255 160 233 192 q 308 109 276 128 q 376 90 339 90 q 451 116 421 90 q 506 185 481 142 l 506 7 q 444 -17 472 -8 q 376 -25 417 -25 q 242 3 303 -25 q 136 78 181 31 q 67 190 92 126 q 42 328 42 254 q 67 465 42 400 q 136 578 92 529 q 210 636 168 613 l 210 328 m 242 653 q 376 681 303 681 q 510 653 449 681 q 617 577 572 625 q 688 465 663 529 q 713 328 713 400 l 711 -29 q 683 -167 711 -103 q 608 -278 656 -231 q 496 -354 560 -326 q 358 -382 432 -382 q 241 -362 296 -382 q 142 -307 186 -343 q 164 -253 150 -279 q 199 -200 178 -226 l 200 -199 q 285 -256 244 -243 q 358 -267 326 -268 q 429 -249 396 -267 q 488 -199 463 -231 q 528 -124 513 -167 q 543 -32 543 -81 l 543 331 q 531 422 543 379 q 497 497 519 465 q 444 547 475 529 q 376 565 414 565 q 308 547 339 565 q 256 496 276 528 q 242 472 247 485 l 242 653 z "},"h":{"ha":754,"x_min":42,"x_max":713,"o":"m 376 683 q 512 656 450 683 q 618 580 574 628 q 688 468 663 532 q 713 331 713 404 l 713 42 q 635 11 676 22 q 543 0 594 0 l 543 331 q 531 424 543 381 q 498 499 519 467 q 446 549 476 531 q 376 568 415 568 q 303 542 332 568 q 247 474 274 517 l 247 651 q 310 675 282 667 q 376 683 338 683 m 42 967 q 118 997 78 986 q 210 1008 158 1008 l 210 42 q 133 11 174 22 q 42 0 92 0 l 42 967 z "},"i":{"ha":301,"x_min":56,"x_max":246,"o":"m 150 753 q 83 781 110 753 q 56 849 56 808 q 83 916 56 889 q 150 943 110 943 q 218 916 190 943 q 246 849 246 889 q 218 781 246 808 q 150 753 190 753 m 65 613 q 142 644 101 632 q 235 656 183 656 l 235 43 q 99 3 175 11 l 65 3 l 65 613 z "},"j":{"ha":336,"x_min":-83,"x_max":281,"o":"m 185 943 q 253 916 225 943 q 281 849 281 889 q 253 781 281 808 q 185 753 225 753 q 117 781 144 753 q 90 849 90 808 q 117 916 90 889 q 185 943 144 943 m 269 -29 q 242 -167 269 -103 q 166 -278 214 -231 q 53 -354 118 -326 q -83 -382 -11 -382 l -83 -267 q -12 -249 -46 -267 q 46 -199 21 -231 q 85 -124 71 -167 q 100 -32 100 -81 l 100 613 q 177 644 136 632 q 269 656 218 656 l 269 -29 z "},"k":{"ha":789,"x_min":42,"x_max":747,"o":"m 210 42 q 133 11 174 22 q 42 0 92 0 l 42 967 q 117 997 76 986 q 210 1008 158 1008 l 210 42 m 582 419 q 702 294 657 372 q 747 121 747 217 l 747 42 q 670 11 711 22 q 579 0 629 0 l 579 151 q 565 239 579 200 q 525 304 550 278 q 466 344 500 331 q 394 358 432 358 q 312 333 350 358 q 247 264 274 307 l 247 444 q 394 476 315 476 q 441 496 425 476 q 471 543 457 515 q 491 581 481 561 q 510 618 501 601 q 529 656 519 638 q 612 646 574 656 q 682 621 650 636 l 582 419 z "},"l":{"ha":450,"x_min":56,"x_max":408,"o":"m 224 353 q 238 260 224 303 q 278 185 253 217 q 337 134 303 153 q 408 115 371 115 l 408 0 q 271 28 335 0 q 159 103 207 56 q 83 215 111 151 q 56 353 56 279 l 56 967 q 133 997 92 986 q 224 1008 174 1008 l 224 353 l 224 353 z "},"m":{"ha":1257,"x_min":42,"x_max":1215,"o":"m 378 683 q 512 656 450 683 q 618 580 574 628 q 688 468 663 532 q 713 331 713 404 l 713 42 q 635 11 676 22 q 544 0 594 0 l 544 331 q 533 424 544 381 q 499 499 521 467 q 447 549 478 531 q 378 568 415 568 q 308 549 339 568 q 255 499 276 531 q 222 424 233 467 q 210 331 210 381 l 210 42 q 134 11 175 22 q 42 0 93 0 l 42 331 q 67 468 42 404 q 136 580 92 532 q 242 656 181 628 q 378 683 304 683 m 879 683 q 1015 656 953 683 q 1121 580 1076 628 q 1190 468 1165 532 q 1215 331 1215 404 l 1215 42 q 1138 11 1179 22 q 1046 0 1097 0 l 1046 331 q 1034 424 1046 381 q 1001 499 1022 467 q 949 549 979 531 q 879 568 918 568 q 790 535 828 568 q 732 447 751 501 q 647 589 707 529 q 750 658 692 633 q 879 683 808 683 z "},"n":{"ha":754,"x_min":42,"x_max":713,"o":"m 376 685 q 512 657 450 685 q 618 581 574 629 q 688 469 663 533 q 713 332 713 404 l 713 43 q 635 12 676 24 q 543 0 594 0 l 543 332 q 531 424 543 381 q 498 499 519 467 q 446 551 476 532 q 376 569 415 569 q 308 551 339 569 q 255 499 276 532 q 222 424 233 467 q 210 332 210 381 l 210 43 q 133 12 174 24 q 42 0 92 0 l 42 332 q 67 469 42 404 q 136 581 92 533 q 242 657 181 629 q 376 685 303 685 z "},"o":{"ha":775,"x_min":35,"x_max":740,"o":"m 365 568 q 315 551 339 564 q 257 499 282 532 q 217 424 232 467 q 203 332 203 381 q 217 240 203 283 q 257 164 232 196 q 315 114 282 132 q 365 96 339 100 l 365 -21 q 250 7 304 -17 q 138 83 186 35 q 63 194 90 131 q 35 332 35 258 q 63 469 35 404 q 138 581 90 533 q 250 657 186 629 q 365 685 304 681 l 365 568 m 418 97 q 460 114 439 103 q 518 164 493 132 q 558 240 543 196 q 572 332 572 283 q 558 424 572 381 q 518 499 543 467 q 460 551 493 532 q 418 567 439 561 l 418 683 q 525 657 474 679 q 637 581 589 629 q 713 469 685 533 q 740 332 740 404 q 713 194 740 258 q 637 83 685 131 q 525 7 589 35 q 418 -19 474 -15 l 418 97 z "},"p":{"ha":782,"x_min":42,"x_max":747,"o":"m 579 632 q 644 582 614 611 q 719 469 692 533 q 747 332 747 404 q 719 194 747 258 q 644 83 692 131 q 531 7 596 35 q 394 -21 467 -21 q 249 11 317 -21 l 249 189 q 312 120 274 146 q 394 94 350 94 q 466 113 432 94 q 525 164 500 132 q 565 240 550 196 q 579 332 579 283 l 579 632 m 539 479 q 525 500 532 490 q 466 551 500 532 q 394 569 432 569 q 323 551 357 569 q 264 501 289 533 q 224 426 239 469 q 210 335 210 383 l 210 -304 q 133 -335 174 -324 q 42 -346 93 -346 l 42 332 q 69 469 42 404 q 145 581 97 533 q 257 657 193 629 q 394 685 321 685 q 532 657 467 685 q 539 654 536 656 l 539 479 z "},"q":{"ha":783,"x_min":35,"x_max":742,"o":"m 204 332 q 219 240 204 283 q 258 164 233 196 q 317 113 283 132 q 388 94 350 94 q 472 120 433 94 q 535 189 510 146 l 535 11 q 388 -21 467 -21 q 250 7 314 -21 q 138 83 186 35 q 63 194 90 131 q 35 332 35 258 q 63 469 35 404 q 139 582 90 533 q 204 633 168 611 l 204 332 m 242 653 q 250 657 246 656 q 388 685 314 685 q 526 657 461 685 q 638 581 590 629 q 714 469 686 533 q 742 332 742 404 l 742 -304 q 665 -335 706 -324 q 572 -346 624 -346 l 572 335 q 557 426 572 383 q 517 501 542 469 q 458 551 492 533 q 388 569 425 569 q 317 551 350 569 q 258 500 283 532 q 242 475 250 488 l 242 653 z "},"r":{"ha":528,"x_min":42,"x_max":514,"o":"m 394 665 q 456 660 426 665 q 514 643 486 654 l 467 538 q 394 549 431 551 q 324 530 357 549 q 265 479 290 511 q 226 404 240 447 q 211 313 211 361 l 211 44 q 134 14 175 25 q 42 3 93 3 l 42 313 q 69 449 42 385 q 145 562 97 514 q 257 638 193 610 q 394 665 321 665 z "},"s":{"ha":572,"x_min":42,"x_max":535,"o":"m 364 385 q 491 300 447 353 q 529 176 535 247 q 501 88 526 126 q 438 25 476 50 q 351 -11 400 0 q 250 -19 301 -22 q 138 12 193 -15 q 42 78 82 39 q 70 126 54 103 q 110 172 86 149 q 187 109 149 125 q 257 90 225 93 q 351 110 321 86 q 385 172 382 135 q 376 213 386 196 q 345 242 365 229 q 294 265 325 254 q 225 290 264 276 q 138 335 172 311 q 85 386 104 360 q 58 440 65 413 q 54 493 51 467 q 74 559 57 526 q 122 617 92 592 q 197 654 153 642 q 296 661 240 667 q 408 629 357 654 q 499 565 458 604 q 470 517 486 540 q 431 471 454 493 q 352 534 390 518 q 282 551 314 550 q 247 547 264 553 q 219 531 231 542 q 201 506 207 521 q 201 475 196 492 q 218 449 207 460 q 249 429 229 439 q 296 409 268 419 q 364 385 324 399 z "},"t":{"ha":451,"x_min":56,"x_max":410,"o":"m 225 353 q 240 261 225 304 q 279 186 254 218 q 338 135 304 154 q 410 117 371 117 l 410 0 q 272 28 336 0 q 159 103 207 56 q 83 215 111 151 q 56 353 56 279 l 56 879 q 133 910 92 899 q 225 922 174 922 l 225 353 m 263 650 l 410 650 l 410 522 l 263 522 l 263 650 z "},"u":{"ha":754,"x_min":42,"x_max":713,"o":"m 544 622 q 622 653 581 642 q 713 665 663 665 l 713 333 q 688 196 713 260 q 618 84 663 132 q 512 8 574 36 q 378 -19 450 -19 q 242 8 304 -19 q 136 84 181 36 q 67 196 92 132 q 42 333 42 260 l 42 622 q 119 653 78 642 q 211 665 160 665 l 211 333 q 223 241 211 285 q 256 165 235 197 q 308 115 278 133 q 378 96 339 96 q 447 115 415 96 q 499 165 478 133 q 533 241 521 197 q 544 333 544 285 l 544 622 l 544 622 z "},"v":{"ha":731,"x_min":28,"x_max":703,"o":"m 550 665 q 633 656 594 665 q 703 631 671 646 l 411 -19 l 321 -19 l 28 631 q 99 656 61 646 q 181 665 136 665 l 365 221 l 550 665 z "},"w":{"ha":1257,"x_min":42,"x_max":1215,"o":"m 1046 622 q 1123 653 1082 642 q 1215 665 1164 665 l 1215 333 q 1190 196 1215 260 q 1121 84 1165 132 q 1015 8 1076 36 q 879 -19 953 -19 q 744 8 806 -19 q 639 84 683 36 q 569 196 594 132 q 544 333 544 260 l 544 622 q 621 653 581 642 q 713 665 661 665 l 713 333 q 724 241 713 285 q 758 165 736 197 q 810 115 779 133 q 879 96 842 96 q 949 115 918 96 q 1001 165 979 133 q 1034 241 1022 197 q 1046 333 1046 285 l 1046 622 m 378 96 q 467 129 429 96 q 525 217 506 163 q 610 75 550 135 q 507 6 565 31 q 378 -19 449 -19 q 242 8 304 -19 q 136 84 181 36 q 67 196 92 132 q 42 333 42 260 l 42 622 q 119 653 78 642 q 211 665 160 665 l 211 333 q 223 241 211 285 q 256 165 235 197 q 308 115 278 133 q 378 96 339 96 z "},"x":{"ha":790,"x_min":42,"x_max":749,"o":"m 610 353 q 710 231 672 304 q 749 72 749 158 l 749 43 q 672 12 713 24 q 579 0 631 0 l 579 72 q 550 201 579 144 q 474 288 521 258 q 610 353 549 304 m 396 310 q 324 291 357 310 q 265 240 290 272 q 226 165 240 208 q 211 72 211 122 l 211 0 q 119 12 160 0 q 42 43 78 24 l 42 72 q 85 242 42 165 q 201 368 129 319 q 95 476 136 410 q 44 624 54 543 q 104 649 72 639 q 174 663 136 660 l 211 663 q 226 570 211 614 q 265 494 240 526 q 324 444 290 463 q 396 425 357 425 q 467 444 433 425 q 525 494 500 463 q 565 570 550 526 q 579 663 579 614 l 617 663 q 686 649 654 660 q 746 624 718 639 q 738 573 746 603 q 713 509 731 543 q 669 442 696 475 q 606 380 643 408 q 522 333 569 351 q 414 310 474 314 l 396 310 z "},"y":{"ha":754,"x_min":42,"x_max":713,"o":"m 507 13 q 444 -11 472 -3 q 378 -19 417 -19 q 242 8 304 -19 q 136 84 181 36 q 67 196 92 132 q 42 333 42 260 l 42 622 q 119 653 78 642 q 211 665 160 665 l 211 333 q 223 241 211 285 q 256 165 235 197 q 308 115 278 133 q 378 96 339 96 q 451 122 422 96 q 507 190 481 147 l 507 13 m 713 -28 q 685 -165 713 -101 q 609 -277 657 -229 q 497 -353 561 -325 q 360 -381 432 -381 q 242 -361 297 -381 q 143 -306 188 -342 q 199 -199 161 -249 l 200 -197 q 287 -253 246 -242 q 360 -265 328 -265 q 431 -247 397 -265 q 489 -197 464 -229 q 529 -123 514 -165 q 544 -32 544 -81 l 544 622 q 621 653 581 642 q 713 665 661 665 l 713 -28 z "},"z":{"ha":654,"x_min":42,"x_max":613,"o":"m 42 663 l 613 663 l 613 550 l 42 550 l 42 663 m 239 113 l 613 113 l 613 0 l 42 0 l 42 117 l 414 511 l 613 511 l 239 113 z "},"C":{"ha":721,"x_min":28,"x_max":679,"o":"m 204 507 q 223 345 204 419 q 276 217 242 271 q 358 131 310 163 q 463 97 406 99 q 535 108 494 96 q 622 164 576 119 q 657 111 643 138 q 679 57 671 85 q 580 1 635 21 q 463 -18 525 -18 q 293 23 372 -18 q 155 135 214 64 q 62 303 96 207 q 28 507 28 399 q 62 711 28 615 q 155 878 96 807 q 293 991 214 950 q 463 1032 372 1032 q 580 1013 525 1032 q 679 957 635 993 q 657 903 671 929 q 622 850 643 876 l 622 849 q 535 906 576 893 q 463 917 494 918 q 358 883 406 915 q 276 797 310 851 q 223 669 242 743 q 204 507 204 594 z "},":":{"ha":306,"x_min":42,"x_max":264,"o":"m 153 463 q 74 494 107 463 q 42 572 42 526 q 74 651 42 619 q 153 683 107 683 q 231 651 199 683 q 264 572 264 619 q 231 494 264 526 q 153 463 199 463 m 153 0 q 74 32 107 0 q 42 111 42 64 q 74 189 42 157 q 153 221 107 221 q 231 189 199 221 q 264 111 264 157 q 231 32 264 64 q 153 0 199 0 z "},";":{"ha":1157,"x_min":-1465,"x_max":-1082,"o":"m -1193 463 q -1272 494 -1240 463 q -1304 572 -1304 526 q -1272 651 -1304 619 q -1193 683 -1240 683 q -1115 651 -1147 683 q -1082 572 -1082 619 q -1115 494 -1082 526 q -1193 463 -1147 463 m -1114 282 q -1111 59 -1101 156 q -1160 -107 -1121 -37 q -1274 -223 -1200 -176 q -1465 -296 -1349 -269 l -1465 -204 q -1358 -147 -1399 -186 q -1297 -51 -1317 -107 q -1274 76 -1276 6 q -1282 229 -1272 147 q -1205 265 -1246 249 q -1114 282 -1164 282 z "},",":{"ha":443,"x_min":42,"x_max":406,"o":"m 394 282 q 396 59 406 156 q 347 -107 386 -37 q 233 -223 307 -176 q 42 -296 158 -269 l 42 -204 q 149 -147 108 -186 q 210 -51 190 -107 q 233 76 231 6 q 225 229 235 147 q 302 265 261 249 q 394 282 343 282 z "},"'":{"ha":281,"x_min":42,"x_max":239,"o":"m 88 982 q 158 1010 121 1001 q 239 1010 194 1018 l 144 660 q 104 649 125 653 q 60 649 83 646 l 42 653 l 88 982 l 88 982 z "},".":{"ha":306,"x_min":42,"x_max":264,"o":"m 153 0 q 74 32 107 0 q 42 111 42 64 q 74 189 42 157 q 153 221 107 221 q 231 189 199 221 q 264 111 264 157 q 231 32 264 64 q 153 0 199 0 z "},"ç":{"ha":654,"x_min":42,"x_max":613,"o":"m 556 160 q 590 107 576 133 q 613 53 603 81 q 541 10 579 28 q 460 -15 503 -8 q 434 -119 454 -74 q 385 -199 414 -164 q 324 -260 357 -235 q 261 -303 292 -286 l 246 -228 q 288 -187 268 -210 q 323 -139 308 -165 q 344 -83 338 -112 q 346 -18 350 -53 q 225 21 281 -10 q 129 98 169 51 q 65 204 89 144 q 42 331 42 264 q 69 469 42 404 q 145 581 97 533 q 257 657 193 629 q 394 685 321 685 q 513 665 457 685 q 613 608 568 644 q 590 554 603 581 q 556 501 576 528 l 554 501 q 468 558 508 546 q 394 568 428 569 q 324 548 357 567 q 265 497 290 529 q 226 423 240 465 q 211 331 211 381 q 226 239 211 282 q 265 164 240 196 q 324 113 290 132 q 394 93 357 94 q 468 105 428 93 q 554 161 508 117 l 556 160 l 556 160 z "},"è":{"ha":707,"x_min":35,"x_max":682,"o":"m 125 953 q 197 982 160 975 q 268 993 233 989 q 326 908 293 939 q 395 863 358 878 q 472 847 432 849 q 549 850 511 844 l 599 793 q 500 770 556 778 q 383 776 444 763 q 255 830 321 789 q 125 953 189 871 m 389 685 q 251 657 315 685 q 138 581 186 629 q 63 469 90 533 q 35 331 35 404 q 63 193 35 257 q 138 81 90 129 q 251 6 186 33 q 389 -22 315 -22 q 522 4 460 -22 q 632 76 585 31 l 550 160 q 503 124 528 139 q 451 101 481 110 q 389 94 422 92 q 317 113 350 94 q 258 162 283 131 q 219 235 233 193 q 204 325 204 276 q 217 420 204 376 q 254 495 231 464 q 310 544 278 526 q 383 561 343 561 q 463 547 435 561 q 506 513 492 532 q 524 474 521 493 q 528 449 528 456 q 521 417 528 440 q 485 374 514 394 q 397 344 456 353 q 233 357 338 336 l 233 340 q 253 238 233 288 q 408 227 332 222 q 542 255 483 232 q 639 320 601 278 q 679 424 676 363 q 659 522 682 475 q 597 606 636 569 q 503 663 557 642 q 389 685 449 685 z "},"é":{"ha":707,"x_min":35,"x_max":682,"o":"m 640 944 q 503 830 572 867 q 372 783 435 793 q 253 785 308 774 q 157 813 199 796 l 211 867 q 288 859 249 860 q 364 871 326 858 q 436 912 401 883 q 499 993 471 940 q 570 977 533 986 q 640 944 607 968 m 389 685 q 503 663 449 685 q 597 606 557 642 q 659 522 636 569 q 679 424 682 475 q 639 320 676 363 q 542 255 601 278 q 408 227 483 232 q 253 238 332 222 q 233 340 233 288 l 233 357 q 397 344 338 336 q 485 374 456 353 q 521 417 514 394 q 528 449 528 440 q 524 474 528 456 q 506 513 521 493 q 463 547 492 532 q 383 561 435 561 q 310 544 343 561 q 254 495 278 526 q 217 420 231 464 q 204 325 204 376 q 219 235 204 276 q 258 162 233 193 q 317 113 283 131 q 389 94 350 94 q 451 101 422 92 q 503 124 481 110 q 550 160 528 139 l 632 76 q 522 4 585 31 q 389 -22 460 -22 q 251 6 315 -22 q 138 81 186 33 q 63 193 90 129 q 35 331 35 257 q 63 469 35 404 q 138 581 90 533 q 251 657 186 629 q 389 685 315 685 z "},"ê":{"ha":707,"x_min":35,"x_max":682,"o":"m 374 993 q 394 941 379 968 q 437 890 410 914 q 503 849 464 867 q 599 828 543 832 l 599 769 q 551 762 578 764 q 495 765 525 760 q 434 783 465 769 q 374 822 403 797 q 313 783 344 797 q 251 765 281 769 q 194 762 221 760 q 149 769 168 764 l 149 828 q 244 849 204 832 q 310 890 283 867 q 353 941 338 914 q 374 993 368 968 m 389 685 q 503 663 449 685 q 597 606 557 642 q 659 522 636 569 q 679 424 682 475 q 639 320 676 363 q 542 255 601 278 q 408 227 483 232 q 253 238 332 222 q 233 340 233 288 l 233 357 q 397 344 338 336 q 485 374 456 353 q 521 417 514 394 q 528 449 528 440 q 524 474 528 456 q 506 513 521 493 q 463 547 492 532 q 383 561 435 561 q 310 544 343 561 q 254 495 278 526 q 217 420 231 464 q 204 325 204 376 q 219 235 204 276 q 258 162 233 193 q 317 113 283 131 q 389 94 350 94 q 451 101 422 92 q 503 124 481 110 q 550 160 528 139 l 632 76 q 522 4 585 31 q 389 -22 460 -22 q 251 6 315 -22 q 138 81 186 33 q 63 193 90 129 q 35 331 35 257 q 63 469 35 404 q 138 581 90 533 q 251 657 186 629 q 389 685 315 685 z "},"ô":{"ha":775,"x_min":35,"x_max":740,"o":"m 371 993 q 392 941 376 968 q 434 890 407 914 q 501 849 461 867 q 596 828 540 832 l 596 769 q 549 762 575 764 q 492 765 522 760 q 431 783 463 769 q 371 822 400 797 q 310 783 342 797 q 248 765 278 769 q 192 762 218 760 q 146 769 165 764 l 146 828 q 241 849 201 832 q 308 890 281 867 q 350 941 335 914 q 371 993 365 968 m 388 685 q 524 657 460 685 q 637 581 589 629 q 713 469 685 533 q 740 332 740 404 q 713 194 740 258 q 637 83 685 131 q 524 7 589 35 q 388 -21 460 -21 q 250 7 314 -21 q 138 83 186 35 q 63 194 90 131 q 35 332 35 258 q 63 469 35 404 q 138 581 90 533 q 250 657 186 629 q 388 685 314 685 m 388 94 q 459 113 425 94 q 518 164 493 132 q 558 240 543 196 q 572 332 572 283 q 558 424 572 381 q 518 499 543 467 q 459 551 493 532 q 388 569 425 569 q 315 551 349 569 q 257 499 282 532 q 217 424 232 467 q 203 332 203 381 q 217 240 203 283 q 257 164 232 196 q 315 113 282 132 q 388 94 349 94 z "},"ò":{"ha":775,"x_min":35,"x_max":740,"o":"m 144 953 q 216 982 179 975 q 288 993 253 989 q 345 908 313 939 q 415 863 378 878 q 491 847 451 849 q 568 850 531 844 l 618 793 q 519 770 575 778 q 402 776 464 763 q 274 830 340 789 q 144 953 208 871 m 388 685 q 250 657 314 685 q 138 581 186 629 q 63 469 90 533 q 35 332 35 404 q 63 194 35 258 q 138 83 90 131 q 250 7 186 35 q 388 -21 314 -21 q 524 7 460 -21 q 637 83 589 35 q 713 194 685 131 q 740 332 740 258 q 713 469 740 404 q 637 581 685 533 q 524 657 589 629 q 388 685 460 685 m 388 94 q 315 113 349 94 q 257 164 282 132 q 217 240 232 196 q 203 332 203 283 q 217 424 203 381 q 257 499 232 467 q 315 551 282 532 q 388 569 349 569 q 459 551 425 569 q 518 499 493 532 q 558 424 543 467 q 572 332 572 381 q 558 240 572 283 q 518 164 543 196 q 459 113 493 132 q 388 94 425 94 z "},"ù":{"ha":754,"x_min":42,"x_max":713,"o":"m 129 953 q 201 982 164 975 q 272 993 238 989 q 330 908 297 939 q 399 863 363 878 q 476 847 436 849 q 553 850 515 844 l 603 793 q 504 770 560 778 q 387 776 449 763 q 259 830 325 789 q 129 953 193 871 m 544 622 l 544 333 q 533 241 544 285 q 499 165 521 197 q 447 115 478 133 q 378 96 415 96 q 308 115 339 96 q 256 165 278 133 q 223 241 235 197 q 211 333 211 285 l 211 665 q 119 653 160 665 q 42 622 78 642 l 42 333 q 67 196 42 260 q 136 84 92 132 q 242 8 181 36 q 378 -19 304 -19 q 512 8 450 -19 q 618 84 574 36 q 688 196 663 132 q 713 333 713 260 l 713 665 q 622 653 663 665 q 544 622 581 642 z "},"ó":{"ha":775,"x_min":35,"x_max":740,"o":"m 640 944 q 503 830 572 867 q 372 783 435 793 q 253 785 308 774 q 157 813 199 796 l 211 867 q 288 859 249 860 q 364 871 326 858 q 436 912 401 883 q 499 993 471 940 q 570 977 533 986 q 640 944 607 968 m 388 685 q 524 657 460 685 q 637 581 589 629 q 713 469 685 533 q 740 332 740 404 q 713 194 740 258 q 637 83 685 131 q 524 7 589 35 q 388 -21 460 -21 q 250 7 314 -21 q 138 83 186 35 q 63 194 90 131 q 35 332 35 258 q 63 469 35 404 q 138 581 90 533 q 250 657 186 629 q 388 685 314 685 m 388 94 q 459 113 425 94 q 518 164 493 132 q 558 240 543 196 q 572 332 572 283 q 558 424 572 381 q 518 499 543 467 q 459 551 493 532 q 388 569 425 569 q 315 551 349 569 q 257 499 282 532 q 217 424 232 467 q 203 332 203 381 q 217 240 203 283 q 257 164 232 196 q 315 113 282 132 q 388 94 349 94 z "},"ú":{"ha":754,"x_min":42,"x_max":713,"o":"m 640 944 q 503 830 572 867 q 372 783 435 793 q 253 785 308 774 q 157 813 199 796 l 211 867 q 288 859 249 860 q 364 871 326 858 q 436 912 401 883 q 499 993 471 940 q 570 977 533 986 q 640 944 607 968 m 544 622 q 622 653 581 642 q 713 665 663 665 l 713 333 q 688 196 713 260 q 618 84 663 132 q 512 8 574 36 q 378 -19 450 -19 q 242 8 304 -19 q 136 84 181 36 q 67 196 92 132 q 42 333 42 260 l 42 622 q 119 653 78 642 q 211 665 160 665 l 211 333 q 223 241 211 285 q 256 165 235 197 q 308 115 278 133 q 378 96 339 96 q 447 115 415 96 q 499 165 478 133 q 533 241 521 197 q 544 333 544 285 l 544 622 z "},"û":{"ha":754,"x_min":42,"x_max":713,"o":"m 371 993 q 392 941 376 968 q 434 890 407 914 q 501 849 461 867 q 596 828 540 832 l 596 769 q 549 762 575 764 q 492 765 522 760 q 431 783 463 769 q 371 822 400 797 q 310 783 342 797 q 248 765 278 769 q 192 762 218 760 q 146 769 165 764 l 146 828 q 241 849 201 832 q 308 890 281 867 q 350 941 335 914 q 371 993 365 968 m 544 622 q 622 653 581 642 q 713 665 663 665 l 713 333 q 688 196 713 260 q 618 84 663 132 q 512 8 574 36 q 378 -19 450 -19 q 242 8 304 -19 q 136 84 181 36 q 67 196 92 132 q 42 333 42 260 l 42 622 q 119 653 78 642 q 211 665 160 665 l 211 333 q 223 241 211 285 q 256 165 235 197 q 308 115 278 133 q 378 96 339 96 q 447 115 415 96 q 499 165 478 133 q 533 241 521 197 q 544 333 544 285 l 544 622 z "},"õ":{"ha":775,"x_min":35,"x_max":740,"o":"m 131 839 q 263 914 196 900 q 408 900 331 928 q 480 874 447 885 q 542 859 513 863 q 599 863 572 856 q 654 893 626 869 l 650 811 q 538 760 596 765 q 403 785 481 756 q 329 808 365 799 q 259 815 293 817 q 192 801 225 814 q 126 757 158 788 l 131 839 m 388 685 q 524 657 460 685 q 637 581 589 629 q 713 469 685 533 q 740 332 740 404 q 713 194 740 258 q 637 83 685 131 q 524 7 589 35 q 388 -21 460 -21 q 250 7 314 -21 q 138 83 186 35 q 63 194 90 131 q 35 332 35 258 q 63 469 35 404 q 138 581 90 533 q 250 657 186 629 q 388 685 314 685 m 388 94 q 459 113 425 94 q 518 164 493 132 q 558 240 543 196 q 572 332 572 283 q 558 424 572 381 q 518 499 543 467 q 459 551 493 532 q 388 569 425 569 q 315 551 349 569 q 257 499 282 532 q 217 424 232 467 q 203 332 203 381 q 217 240 203 283 q 257 164 232 196 q 315 113 282 132 q 388 94 349 94 z "},"ñ":{"ha":754,"x_min":42,"x_max":713,"o":"m 131 839 q 263 914 196 900 q 408 900 331 928 q 480 874 447 885 q 542 859 513 863 q 599 863 572 856 q 654 893 626 869 l 650 811 q 538 760 596 765 q 403 785 481 756 q 329 808 365 799 q 259 815 293 817 q 192 801 225 814 q 126 757 158 788 l 131 839 m 376 685 q 512 657 450 685 q 618 581 574 629 q 688 469 663 533 q 713 332 713 404 l 713 43 q 635 12 676 24 q 543 0 594 0 l 543 332 q 531 424 543 381 q 498 499 519 467 q 446 551 476 532 q 376 569 415 569 q 308 551 339 569 q 255 499 276 532 q 222 424 233 467 q 210 332 210 381 l 210 43 q 133 12 174 24 q 42 0 92 0 l 42 332 q 67 469 42 404 q 136 581 92 533 q 242 657 181 629 q 376 685 303 685 z "},"ã":{"ha":782,"x_min":35,"x_max":740,"o":"m 131 839 q 263 914 196 900 q 408 900 331 928 q 480 874 447 885 q 542 859 513 863 q 599 863 572 856 q 654 893 626 869 l 650 811 q 538 760 596 765 q 403 785 481 756 q 329 808 365 799 q 259 815 293 817 q 192 801 225 814 q 126 757 158 788 l 131 839 m 388 683 q 525 656 461 683 q 637 580 589 628 q 713 468 685 532 q 740 331 740 404 l 740 0 q 649 11 690 0 q 572 42 608 22 l 572 331 q 569 378 572 356 q 558 424 565 401 q 491 528 536 488 q 388 568 446 568 q 316 549 350 568 q 257 499 282 531 q 217 424 232 467 q 203 331 203 381 q 217 239 203 282 q 257 164 232 196 q 316 113 282 132 q 388 94 350 94 q 470 119 432 94 q 535 189 508 144 l 535 10 q 465 -14 501 -6 q 388 -22 428 -22 q 250 6 314 -22 q 138 81 186 33 q 63 193 90 129 q 35 331 35 257 q 63 468 35 404 q 138 580 90 532 q 250 656 186 628 q 388 683 314 683 z "},"ü":{"ha":754,"x_min":35,"x_max":494,"o":"m 119 771 q 60 795 85 771 q 35 856 35 819 q 60 915 35 890 q 119 939 85 939 q 180 915 156 939 q 204 856 204 890 q 180 795 204 819 q 119 771 156 771 m 411 771 q 351 795 375 771 q 326 856 326 819 q 351 915 326 890 q 411 939 375 939 q 470 915 446 939 q 494 856 494 890 q 470 795 494 819 q 411 771 446 771 z "},"ö":{"ha":775,"x_min":35,"x_max":740,"o":"m 251 771 q 192 795 217 771 q 167 856 167 819 q 192 915 167 890 q 251 939 217 939 q 312 915 288 939 q 336 856 336 890 q 312 795 336 819 q 251 771 288 771 m 543 771 q 483 795 507 771 q 458 856 458 819 q 483 915 458 890 q 543 939 507 939 q 602 915 578 939 q 626 856 626 890 q 602 795 626 819 q 543 771 578 771 m 388 685 q 524 657 460 685 q 637 581 589 629 q 713 469 685 533 q 740 332 740 404 q 713 194 740 258 q 637 83 685 131 q 524 7 589 35 q 388 -21 460 -21 q 250 7 314 -21 q 138 83 186 35 q 63 194 90 131 q 35 332 35 258 q 63 469 35 404 q 138 581 90 533 q 250 657 186 629 q 388 685 314 685 m 388 94 q 459 113 425 94 q 518 164 493 132 q 558 240 543 196 q 572 332 572 283 q 558 424 572 381 q 518 499 543 467 q 459 551 493 532 q 388 569 425 569 q 315 551 349 569 q 257 499 282 532 q 217 424 232 467 q 203 332 203 381 q 217 240 203 283 q 257 164 232 196 q 315 113 282 132 q 388 94 349 94 z "},"ÿ":{"ha":754,"x_min":42,"x_max":713,"o":"m 240 771 q 181 795 206 771 q 156 856 156 819 q 181 915 156 890 q 240 939 206 939 q 301 915 276 939 q 325 856 325 890 q 301 795 325 819 q 240 771 276 771 m 532 771 q 472 795 496 771 q 447 856 447 819 q 472 915 447 890 q 532 939 496 939 q 591 915 567 939 q 615 856 615 890 q 591 795 615 819 q 532 771 567 771 m 507 13 q 444 -11 472 -3 q 378 -19 417 -19 q 242 8 304 -19 q 136 84 181 36 q 67 196 92 132 q 42 333 42 260 l 42 622 q 119 653 78 642 q 211 665 160 665 l 211 333 q 223 241 211 285 q 256 165 235 197 q 308 115 278 133 q 378 96 339 96 q 451 122 422 96 q 507 190 481 147 l 507 13 m 713 -28 q 685 -165 713 -101 q 609 -277 657 -229 q 497 -353 561 -325 q 360 -381 432 -381 q 242 -361 297 -381 q 143 -306 188 -342 q 199 -199 161 -249 l 200 -197 q 287 -253 246 -242 q 360 -265 328 -265 q 431 -247 397 -265 q 489 -197 464 -229 q 529 -123 514 -165 q 544 -32 544 -81 l 544 622 q 621 653 581 642 q 713 665 661 665 l 713 -28 z "},"ä":{"ha":782,"x_min":35,"x_max":740,"o":"m 258 771 q 199 795 224 771 q 174 856 174 819 q 199 915 174 890 q 258 939 224 939 q 319 915 294 939 q 343 856 343 890 q 319 795 343 819 q 258 771 294 771 m 550 771 q 490 795 514 771 q 465 856 465 819 q 490 915 465 890 q 550 939 514 939 q 609 915 585 939 q 633 856 633 890 q 609 795 633 819 q 550 771 585 771 m 388 683 q 525 656 461 683 q 637 580 589 628 q 713 468 685 532 q 740 331 740 404 l 740 0 q 649 11 690 0 q 572 42 608 22 l 572 331 q 569 378 572 356 q 558 424 565 401 q 491 528 536 488 q 388 568 446 568 q 316 549 350 568 q 257 499 282 531 q 217 424 232 467 q 203 331 203 381 q 217 239 203 282 q 257 164 232 196 q 316 113 282 132 q 388 94 350 94 q 470 119 432 94 q 535 189 508 144 l 535 10 q 465 -14 501 -6 q 388 -22 428 -22 q 250 6 314 -22 q 138 81 186 33 q 63 193 90 129 q 35 331 35 257 q 63 468 35 404 q 138 580 90 532 q 250 656 186 628 q 388 683 314 683 z "},"ë":{"ha":707,"x_min":35,"x_max":682,"o":"m 231 771 q 171 795 196 771 q 146 856 146 819 q 171 915 146 890 q 231 939 196 939 q 291 915 267 939 q 315 856 315 890 q 291 795 315 819 q 231 771 267 771 m 522 771 q 462 795 486 771 q 438 856 438 819 q 462 915 438 890 q 522 939 486 939 q 581 915 557 939 q 606 856 606 890 q 581 795 606 819 q 522 771 557 771 m 389 685 q 503 663 449 685 q 597 606 557 642 q 659 522 636 569 q 679 424 682 475 q 639 320 676 363 q 542 255 601 278 q 408 227 483 232 q 253 238 332 222 q 233 340 233 288 l 233 357 q 397 344 338 336 q 485 374 456 353 q 521 417 514 394 q 528 449 528 440 q 524 474 528 456 q 506 513 521 493 q 463 547 492 532 q 383 561 435 561 q 310 544 343 561 q 254 495 278 526 q 217 420 231 464 q 204 325 204 376 q 219 235 204 276 q 258 162 233 193 q 317 113 283 131 q 389 94 350 94 q 451 101 422 92 q 503 124 481 110 q 550 160 528 139 l 632 76 q 522 4 585 31 q 389 -22 460 -22 q 251 6 315 -22 q 138 81 186 33 q 63 193 90 129 q 35 331 35 257 q 63 469 35 404 q 138 581 90 533 q 251 657 186 629 q 389 685 315 685 z "},"ï":{"ha":432,"x_min":-14,"x_max":446,"o":"m 71 771 q 11 795 36 771 q -14 856 -14 819 q 11 915 -14 890 q 71 939 36 939 q 131 915 107 939 q 156 856 156 890 q 131 795 156 819 q 71 771 107 771 m 363 771 q 302 795 326 771 q 278 856 278 819 q 302 915 278 890 q 363 939 326 939 q 422 915 397 939 q 446 856 446 890 q 422 795 446 819 q 363 771 397 771 m 129 613 q 206 644 165 632 q 299 656 247 656 l 299 43 q 163 3 239 11 l 129 3 l 129 613 z "},"î":{"ha":450,"x_min":-4,"x_max":446,"o":"m 129 613 q 206 644 165 632 q 299 656 247 656 l 299 43 q 163 3 239 11 l 129 3 l 129 613 m 221 993 q 242 941 226 968 q 284 890 257 914 q 351 849 311 867 q 446 828 390 832 l 446 769 q 399 762 425 764 q 342 765 372 760 q 281 783 313 769 q 221 822 250 797 q 160 783 192 797 q 98 765 128 769 q 42 762 68 760 q -4 769 15 764 l -4 828 q 91 849 51 832 q 158 890 131 867 q 200 941 185 914 q 221 993 215 968 z "},"í":{"ha":469,"x_min":-11,"x_max":472,"o":"m 129 613 q 206 644 165 632 q 299 656 247 656 l 299 43 q 163 3 239 11 l 129 3 l 129 613 m 472 944 q 335 830 404 867 q 203 783 267 793 q 85 785 140 774 q -11 813 31 796 l 43 867 q 119 859 81 860 q 196 871 158 858 q 268 912 233 883 q 331 993 303 940 q 402 977 365 986 q 472 944 439 968 z "},"ì":{"ha":456,"x_min":-15,"x_max":458,"o":"m 129 613 l 129 3 l 163 3 q 299 43 239 11 l 299 656 q 206 644 247 656 q 129 613 165 632 m -15 953 q 56 982 19 975 q 128 993 93 989 q 185 908 153 939 q 255 863 218 878 q 331 847 292 849 q 408 850 371 844 l 458 793 q 360 770 415 778 q 242 776 304 763 q 115 830 181 789 q -15 953 49 871 z "},"-":{"ha":485,"x_min":42,"x_max":443,"o":"m 42 308 l 42 438 l 443 438 l 443 308 l 42 308 l 42 308 z "},"?":{"ha":658,"x_min":42,"x_max":625,"o":"m 596 842 q 611 699 625 764 q 540 576 597 635 q 486 523 508 544 q 436 474 464 501 q 359 415 404 443 q 282 372 314 388 q 206 343 247 357 q 114 329 164 329 q 165 442 126 392 q 249 535 203 492 q 282 565 271 556 q 297 578 293 575 q 301 583 301 582 q 304 585 301 583 q 315 594 307 588 q 342 619 322 601 q 419 713 399 672 q 425 800 440 754 q 403 842 418 822 q 368 874 389 861 q 320 889 347 886 q 261 882 293 892 q 194 848 229 871 q 131 768 160 825 l 129 769 q 42 854 76 806 q 120 937 74 901 q 226 992 167 972 q 370 1010 307 1018 q 479 977 433 1003 q 554 914 525 951 q 596 842 583 876 m 242 0 q 163 33 196 0 q 131 111 131 65 q 163 190 131 157 q 242 222 196 222 q 320 190 288 222 q 353 111 353 157 q 320 33 353 65 q 242 0 288 0 z "},"!":{"ha":306,"x_min":42,"x_max":264,"o":"m 236 372 q 160 341 200 353 q 68 329 119 329 l 68 969 q 145 1000 104 989 q 236 1011 186 1011 l 236 372 m 153 0 q 74 33 107 0 q 42 111 42 65 q 74 190 42 157 q 153 222 107 222 q 231 190 199 222 q 264 111 264 157 q 231 33 264 65 q 153 0 199 0 z "},"ý":{"ha":754,"x_min":42,"x_max":713,"o":"m 640 944 q 503 830 572 867 q 372 783 435 793 q 253 785 308 774 q 157 813 199 796 l 211 867 q 288 859 249 860 q 364 871 326 858 q 436 912 401 883 q 499 993 471 940 q 570 977 533 986 q 640 944 607 968 m 507 13 q 444 -11 472 -3 q 378 -19 417 -19 q 242 8 304 -19 q 136 84 181 36 q 67 196 92 132 q 42 333 42 260 l 42 622 q 119 653 78 642 q 211 665 160 665 l 211 333 q 223 241 211 285 q 256 165 235 197 q 308 115 278 133 q 378 96 339 96 q 451 122 422 96 q 507 190 481 147 l 507 13 m 713 -28 q 685 -165 713 -101 q 609 -277 657 -229 q 497 -353 561 -325 q 360 -381 432 -381 q 242 -361 297 -381 q 143 -306 188 -342 q 199 -199 161 -249 l 200 -197 q 287 -253 246 -242 q 360 -265 328 -265 q 431 -247 397 -265 q 489 -197 464 -229 q 529 -123 514 -165 q 544 -32 544 -81 l 544 622 q 621 653 581 642 q 713 665 661 665 l 713 -28 z "},"â":{"ha":782,"x_min":35,"x_max":740,"o":"m 401 993 q 422 941 407 968 q 465 890 438 914 q 531 849 492 867 q 626 828 571 832 l 626 769 q 579 762 606 764 q 523 765 553 760 q 462 783 493 769 q 401 822 431 797 q 340 783 372 797 q 278 765 308 769 q 222 762 249 760 q 176 769 196 764 l 176 828 q 272 849 232 832 q 338 890 311 867 q 381 941 365 914 q 401 993 396 968 m 388 683 q 525 656 461 683 q 637 580 589 628 q 713 468 685 532 q 740 331 740 404 l 740 0 q 649 11 690 0 q 572 42 608 22 l 572 331 q 569 378 572 356 q 558 424 565 401 q 491 528 536 488 q 388 568 446 568 q 316 549 350 568 q 257 499 282 531 q 217 424 232 467 q 203 331 203 381 q 217 239 203 282 q 257 164 232 196 q 316 113 282 132 q 388 94 350 94 q 470 119 432 94 q 535 189 508 144 l 535 10 q 465 -14 501 -6 q 388 -22 428 -22 q 250 6 314 -22 q 138 81 186 33 q 63 193 90 129 q 35 331 35 257 q 63 468 35 404 q 138 580 90 532 q 250 656 186 628 q 388 683 314 683 z "},"à":{"ha":782,"x_min":35,"x_max":740,"o":"m 167 953 q 238 982 201 975 q 310 993 275 989 q 367 908 335 939 q 437 863 400 878 q 513 847 474 849 q 590 850 553 844 l 640 793 q 542 770 597 778 q 424 776 486 763 q 297 830 363 789 q 167 953 231 871 m 388 683 q 250 656 314 683 q 138 580 186 628 q 63 468 90 532 q 35 331 35 404 q 63 193 35 257 q 138 81 90 129 q 250 6 186 33 q 388 -22 314 -22 q 465 -14 428 -22 q 535 10 501 -6 l 535 189 q 470 119 508 144 q 388 94 432 94 q 316 113 350 94 q 257 164 282 132 q 217 239 232 196 q 203 331 203 282 q 217 424 203 381 q 257 499 232 467 q 316 549 282 531 q 388 568 350 568 q 491 528 446 568 q 558 424 536 488 q 569 378 565 401 q 572 331 572 356 l 572 42 q 649 11 608 22 q 740 0 690 0 l 740 331 q 713 468 740 404 q 637 580 685 532 q 525 656 589 628 q 388 683 461 683 z "},"á":{"ha":782,"x_min":35,"x_max":740,"o":"m 624 944 q 487 830 556 867 q 355 783 418 793 q 237 785 292 774 q 140 813 182 796 l 194 867 q 271 859 232 860 q 347 871 310 858 q 419 912 385 883 q 482 993 454 940 q 553 977 517 986 q 624 944 590 968 m 388 683 q 525 656 461 683 q 637 580 589 628 q 713 468 685 532 q 740 331 740 404 l 740 0 q 649 11 690 0 q 572 42 608 22 l 572 331 q 569 378 572 356 q 558 424 565 401 q 491 528 536 488 q 388 568 446 568 q 316 549 350 568 q 257 499 282 531 q 217 424 232 467 q 203 331 203 381 q 217 239 203 282 q 257 164 232 196 q 316 113 282 132 q 388 94 350 94 q 470 119 432 94 q 535 189 508 144 l 535 10 q 465 -14 501 -6 q 388 -22 428 -22 q 250 6 314 -22 q 138 81 186 33 q 63 193 90 129 q 35 331 35 257 q 63 468 35 404 q 138 580 90 532 q 250 656 186 628 q 388 683 314 683 z "},"@":{"ha":1231,"x_min":42,"x_max":1189,"o":"m 585 565 q 543 550 563 561 q 485 499 510 531 q 445 424 460 467 q 431 331 431 381 q 445 239 431 282 q 485 164 460 196 q 543 113 510 132 q 615 94 576 94 q 698 120 660 94 q 761 189 736 146 l 761 10 q 691 -14 728 -6 q 615 -22 654 -22 q 477 6 542 -22 q 365 81 413 33 q 289 193 317 129 q 261 331 261 257 q 289 469 261 404 q 365 581 317 533 q 478 657 413 629 q 585 683 528 679 l 585 565 m 633 685 q 753 657 696 681 q 865 581 817 629 q 940 469 913 533 q 968 331 968 404 l 968 186 q 1006 260 992 218 q 1021 350 1019 301 l 1021 660 q 1006 751 1021 708 q 965 825 990 793 q 907 875 940 857 q 836 893 874 893 l 633 893 l 633 1008 l 836 1008 q 974 981 910 1008 q 1085 905 1038 953 q 1161 793 1133 857 q 1189 656 1189 729 l 1189 353 q 1161 215 1189 279 q 1085 103 1133 151 q 974 28 1038 56 q 836 0 910 0 l 799 0 l 799 331 q 785 424 799 383 q 719 528 764 488 q 633 567 681 561 l 633 685 m 585 893 l 394 893 q 323 875 357 893 q 264 825 289 857 q 224 751 239 793 q 210 660 210 708 l 210 -32 q 224 -124 210 -81 q 264 -199 239 -167 q 323 -249 289 -231 q 394 -267 357 -267 l 394 -382 q 257 -354 321 -382 q 145 -278 193 -326 q 69 -167 97 -231 q 42 -29 42 -103 l 42 656 q 69 793 42 729 q 145 905 97 857 q 257 981 193 953 q 394 1008 321 1008 l 585 1008 l 585 893 z "},"œ":{"ha":1239,"x_min":28,"x_max":1213,"o":"m 764 357 q 926 344 867 336 q 1014 374 985 353 q 1050 417 1043 394 q 1057 449 1057 440 q 1053 474 1057 456 q 1036 511 1050 492 q 994 546 1022 531 q 914 561 965 561 q 841 544 874 561 q 784 495 808 526 q 747 420 760 464 q 733 325 733 376 q 748 235 733 276 q 788 161 763 193 q 847 111 813 129 q 918 93 881 93 q 981 101 951 90 q 1033 124 1011 111 q 1081 158 1058 139 l 1163 76 q 1051 4 1114 31 q 918 -22 989 -22 q 768 11 838 -22 q 650 101 699 44 q 532 11 601 44 q 381 -22 463 -22 q 243 6 307 -22 q 131 81 179 33 q 56 193 83 129 q 28 331 28 257 q 56 467 28 403 q 131 580 83 532 q 243 656 179 628 q 381 683 307 683 q 532 651 463 683 q 650 560 601 618 q 768 651 699 618 q 918 683 838 683 q 1032 662 978 683 q 1126 605 1086 640 q 1190 522 1167 569 q 1210 424 1213 475 q 1169 320 1207 363 q 1072 254 1132 278 q 938 226 1013 231 q 783 238 863 222 q 764 340 764 285 l 764 357 m 381 93 q 452 112 418 93 q 511 163 486 131 q 551 238 536 194 q 565 331 565 282 q 551 422 565 379 q 511 498 536 465 q 452 549 486 531 q 381 568 418 568 q 309 549 343 568 q 250 498 275 531 q 210 422 225 465 q 196 331 196 379 q 210 238 196 282 q 250 163 225 194 q 309 112 275 131 q 381 93 343 93 z "},"(":{"ha":436,"x_min":42,"x_max":394,"o":"m 42 656 q 69 793 42 729 q 145 905 97 857 q 257 981 193 953 q 394 1008 321 1008 l 394 893 q 323 875 357 893 q 264 825 289 857 q 224 751 239 793 q 210 660 210 708 l 210 -32 q 224 -124 210 -81 q 264 -199 239 -167 q 323 -249 289 -231 q 394 -267 357 -267 l 394 -382 q 257 -354 321 -382 q 145 -278 193 -326 q 69 -167 97 -231 q 42 -29 42 -103 l 42 656 z "},")":{"ha":436,"x_min":42,"x_max":394,"o":"m 394 -29 q 367 -167 394 -103 q 291 -278 339 -231 q 179 -354 243 -326 q 42 -382 115 -382 l 42 -267 q 113 -249 79 -267 q 171 -199 146 -231 q 211 -124 196 -167 q 226 -32 226 -81 l 226 660 q 211 751 226 708 q 171 825 196 793 q 113 875 146 857 q 42 893 79 893 l 42 1008 q 179 981 115 1008 q 291 905 243 953 q 367 793 339 857 q 394 656 394 729 l 394 -29 z "},"…":{"ha":917,"x_min":42,"x_max":875,"o":"m 153 0 q 74 32 107 0 q 42 111 42 64 q 74 189 42 157 q 153 221 107 221 q 231 189 199 221 q 264 111 264 157 q 231 32 264 64 q 153 0 199 0 m 458 0 q 380 32 413 0 q 347 111 347 64 q 380 189 347 157 q 458 221 413 221 q 537 189 504 221 q 569 111 569 157 q 537 32 569 64 q 458 0 504 0 m 764 0 q 685 32 718 0 q 653 111 653 64 q 685 189 653 157 q 764 221 718 221 q 842 189 810 221 q 875 111 875 157 q 842 32 875 64 q 764 0 810 0 z "},"˚":{"ha":1157,"x_min":0,"x_max":0,"o":""},"°":{"ha":451,"x_min":42,"x_max":410,"o":"m 226 1043 q 297 1028 264 1043 q 356 989 331 1014 q 395 930 381 964 q 410 858 410 896 q 395 787 410 821 q 356 728 381 753 q 297 688 331 703 q 226 674 264 674 q 154 688 188 674 q 96 728 121 703 q 56 787 71 753 q 42 858 42 821 q 56 930 42 896 q 96 989 71 964 q 154 1028 121 1014 q 226 1043 188 1043 m 226 772 q 287 797 263 772 q 311 858 311 822 q 287 919 311 894 q 226 944 263 944 q 165 919 190 944 q 140 858 140 894 q 165 797 140 822 q 226 772 190 772 z "},"«":{"ha":732,"x_min":42,"x_max":692,"o":"m 328 351 q 408 384 365 360 q 488 451 450 408 q 552 556 525 493 q 588 704 579 618 l 678 704 q 689 631 686 672 q 684 543 692 590 q 656 447 676 496 q 596 351 635 397 q 656 256 635 306 q 684 160 676 207 q 689 72 692 114 q 678 0 686 31 l 588 0 q 552 149 579 86 q 488 253 525 211 q 408 319 450 296 q 328 351 365 343 m 42 351 q 122 384 79 360 q 201 451 164 408 q 265 556 238 493 q 300 704 292 618 l 390 704 q 401 631 399 672 q 397 543 404 590 q 369 447 390 496 q 308 351 347 397 q 369 256 347 306 q 397 160 390 207 q 401 72 404 114 q 390 0 399 31 l 300 0 q 265 149 292 86 q 201 253 238 211 q 122 319 164 296 q 42 351 79 343 z "},"»":{"ha":731,"x_min":40,"x_max":689,"o":"m 403 351 q 323 319 365 343 q 244 253 281 296 q 180 149 207 211 q 144 0 153 86 l 54 0 q 43 72 46 31 q 47 160 40 114 q 75 256 54 207 q 135 351 96 306 q 75 447 96 397 q 47 543 54 496 q 43 631 40 590 q 54 704 46 672 l 144 704 q 180 556 153 618 q 244 451 207 493 q 323 384 281 408 q 403 351 365 360 m 689 351 q 609 319 651 343 q 530 253 567 296 q 466 149 493 211 q 431 0 439 86 l 340 0 q 329 72 332 31 q 334 160 326 114 q 363 256 342 207 q 422 351 383 306 q 363 447 383 397 q 334 543 342 496 q 329 631 326 590 q 340 704 332 672 l 431 704 q 466 556 439 618 q 530 451 493 493 q 609 384 567 408 q 689 351 651 360 z "},"\"":{"ha":438,"x_min":42,"x_max":396,"o":"m 89 982 q 158 1010 121 1001 q 239 1010 196 1018 l 144 660 q 61 649 104 644 l 42 653 l 89 982 m 350 683 q 280 656 317 665 q 200 657 243 647 l 294 1007 q 378 1017 335 1021 l 396 1013 l 350 683 z "},"&":{"ha":929,"x_min":42,"x_max":888,"o":"m 161 668 q 121 724 136 693 q 96 828 96 772 q 110 906 96 864 q 157 984 124 949 q 247 1043 190 1019 q 389 1067 303 1067 q 531 1043 472 1067 q 625 984 589 1019 q 678 906 661 949 q 694 828 694 864 q 669 724 694 772 q 599 642 644 675 q 524 604 567 618 q 432 590 482 590 l 388 590 q 318 568 350 588 q 263 517 286 549 q 225 442 239 485 q 211 353 211 400 q 226 261 211 304 q 265 186 240 218 q 324 135 290 154 q 396 117 357 117 q 469 135 435 117 q 527 186 503 154 q 565 261 551 218 q 579 353 579 304 l 472 353 l 472 469 l 768 469 q 830 464 800 469 q 888 449 860 458 l 840 342 q 802 351 821 349 q 768 353 783 354 l 749 353 q 721 215 749 279 q 645 103 693 151 q 533 28 597 56 q 396 0 468 0 q 258 28 322 0 q 145 103 193 56 q 69 215 97 151 q 42 353 42 279 q 83 518 42 443 q 192 642 124 593 l 339 718 l 340 718 q 396 707 365 707 q 452 717 426 707 q 496 744 478 728 q 524 783 514 761 q 533 831 535 806 q 524 875 532 853 q 499 914 515 897 q 456 941 482 931 q 396 951 431 951 q 336 941 361 951 q 294 914 311 931 q 267 875 276 897 q 257 831 258 853 q 266 783 256 806 q 296 744 276 761 l 297 743 l 161 668 z "},"M":{"ha":1256,"x_min":42,"x_max":1214,"o":"m 376 1028 q 510 1000 449 1028 q 617 924 572 972 q 688 813 663 876 q 713 675 713 749 l 713 42 q 635 11 676 22 q 543 0 594 0 l 543 675 q 531 768 543 725 q 498 843 519 811 q 445 894 476 875 q 376 913 414 913 q 308 894 339 913 q 255 843 276 875 q 222 768 233 811 q 210 675 210 725 l 210 42 q 133 11 174 22 q 42 0 92 0 l 42 675 q 67 813 42 749 q 136 924 92 876 q 242 1000 181 972 q 376 1028 303 1028 m 879 1028 q 1013 1000 951 1028 q 1119 924 1075 972 q 1189 813 1164 876 q 1214 675 1214 749 l 1214 42 q 1138 11 1178 22 q 1046 0 1097 0 l 1046 675 q 1034 768 1046 725 q 1001 843 1022 811 q 948 894 979 875 q 879 913 917 913 q 789 879 826 913 q 732 792 751 846 q 647 933 706 872 q 750 1003 692 978 q 879 1028 808 1028 z "},"A":{"ha":789,"x_min":42,"x_max":747,"o":"m 394 1032 q 532 1004 468 1032 q 644 928 596 976 q 719 816 692 881 q 747 679 747 751 l 747 46 q 671 15 711 26 q 579 3 631 3 l 579 682 q 564 773 579 731 q 524 847 549 815 q 465 898 499 879 q 394 917 432 917 q 323 898 357 917 q 264 847 289 879 q 224 771 239 814 q 210 679 210 728 l 211 679 l 211 675 q 226 584 211 626 q 265 510 240 542 q 324 460 290 478 q 394 442 357 442 q 477 467 439 442 q 542 536 515 493 l 542 358 q 394 326 474 326 q 298 340 344 326 q 211 378 251 354 l 210 46 q 134 15 175 26 q 42 3 93 3 l 42 679 l 42 682 q 71 818 43 754 q 147 930 99 882 q 258 1005 194 978 q 394 1032 322 1032 z "},"B":{"ha":782,"x_min":42,"x_max":747,"o":"m 524 646 q 613 598 572 628 q 684 528 654 568 q 731 438 714 488 q 747 333 747 389 q 719 196 747 260 q 644 84 692 132 q 531 8 596 36 q 394 -19 467 -19 q 257 8 321 -19 q 145 84 193 36 q 69 196 97 132 q 42 333 42 260 l 42 642 q 72 823 42 751 q 150 937 103 894 q 256 996 197 979 q 368 1013 314 1013 q 464 997 421 1013 q 537 953 507 981 q 583 888 567 925 q 600 807 600 850 q 580 716 600 758 q 524 646 560 674 m 394 96 q 466 115 432 96 q 525 165 500 133 q 565 240 550 197 q 579 333 579 283 l 578 333 l 578 338 q 563 428 578 386 q 524 502 549 471 q 465 551 499 533 q 394 569 432 569 q 312 544 350 569 q 247 475 274 519 l 247 682 q 397 714 315 714 q 447 742 426 715 q 468 807 468 768 q 442 872 468 844 q 371 899 415 899 q 331 896 358 899 q 277 874 304 893 q 229 813 250 856 q 208 692 208 771 l 210 329 q 224 238 210 281 q 264 164 239 196 q 323 114 289 132 q 394 96 357 96 z "}}}
